# Blender v2.79 (sub 0) OBJ File: ''
# www.blender.org
mtllib star.mtl
o Cube.001
v 1.000000 -1.000000 -1.000000
v 1.000000 -1.000000 1.000000
v -1.000000 -1.000000 1.000000
v -1.000000 -1.000000 -1.000000
v 1.000000 1.000000 -0.999999
v -1.000000 1.000000 -1.000000
v -1.000000 1.000000 1.000000
v 0.999999 1.000000 1.000001
vt 0.333546 0.333291
vt 0.666709 0.333291
vt 0.666709 0.666454
vt 0.333546 0.666454
vt 0.000128 0.333291
vt 0.333291 0.333291
vt 0.333291 0.000128
vt 0.000128 0.000128
vt 0.333546 0.000128
vt 0.666709 0.000128
vt 0.000128 0.333291
vt 0.333291 0.333291
vt 0.333291 0.666709
vt 0.000128 0.666709
vt 0.000128 0.999872
vt 0.333291 0.999872
vt 0.000128 0.666454
vt 0.333291 0.666454
vn 0.0000 -1.0000 -0.0000
vn -0.0000 1.0000 0.0000
vn 1.0000 0.0000 0.0000
vn -0.0000 -0.0000 1.0000
vn -1.0000 -0.0000 0.0000
vn 0.0000 0.0000 -1.0000
usemtl StarGlass
s off
f 1/1/1 2/2/1 3/3/1 4/4/1
f 5/5/2 6/6/2 7/7/2 8/8/2
f 1/1/3 5/9/3 8/10/3 2/2/3
f 2/11/4 8/8/4 7/7/4 3/12/4
f 3/13/5 7/14/5 6/15/5 4/16/5
f 5/5/6 1/17/6 4/18/6 6/6/6
o Cube.002_Cube.003
v -0.292893 -0.000000 1.707107
v 0.707107 1.414214 0.707107
v -0.707107 1.414214 -0.707107
v -1.707107 -0.000000 0.292893
v 0.292893 0.000000 -1.707107
v -0.707107 -1.414214 -0.707107
v 1.707107 0.000000 -0.292893
v 0.707107 -1.414214 0.707107
vt 0.389407 0.724879
vt 0.389407 0.999794
vt 0.778195 0.999794
vt 0.778195 0.724879
vt 0.317650 0.112440
vt 0.000206 0.000206
vt 0.000206 0.336906
vt 0.317650 0.449140
vt 0.388994 0.724879
vt 0.388994 0.999794
vt 0.000206 0.999794
vt 0.000206 0.724879
vt 0.635507 0.449140
vt 0.318063 0.336906
vt 0.318063 0.000206
vt 0.635507 0.112440
vt 0.388994 0.449552
vt 0.388994 0.724467
vt 0.000206 0.724467
vt 0.000206 0.449552
vt 0.778195 0.724467
vt 0.778195 0.449552
vt 0.389407 0.449552
vt 0.389407 0.724467
vn -0.5000 0.7071 0.5000
vn -0.7071 0.0000 -0.7071
vn 0.5000 -0.7071 -0.5000
vn 0.7071 -0.0000 0.7071
vn -0.5000 -0.7071 0.5000
vn 0.5000 0.7071 -0.5000
usemtl StarGlass
s 1
f 9/19/7 10/20/7 11/21/7 12/22/7
f 12/23/8 11/24/8 13/25/8 14/26/8
f 14/27/9 13/28/9 15/29/9 16/30/9
f 16/31/10 15/32/10 10/33/10 9/34/10
f 12/35/11 14/36/11 16/37/11 9/38/11
f 13/39/12 11/40/12 10/41/12 15/42/12
o Cube.001_Cube.002
v 0.003050 -0.292912 -1.707107
v 0.003050 -1.707125 -0.292893
v -1.411164 -0.707125 0.707107
v -1.411164 0.707088 -0.707107
v 0.003050 0.292875 1.707107
v 0.003050 1.707088 0.292893
v 1.417264 -0.707125 0.707107
v 1.417264 0.707088 -0.707107
vt 0.999774 0.426978
vt 0.999774 0.000227
vt 0.698015 0.000226
vt 0.698015 0.426978
vt 0.301985 0.920201
vt 0.301985 0.493450
vt 0.000226 0.493450
vt 0.000226 0.920201
vt 0.698015 0.854183
vt 0.698015 0.427431
vt 0.999774 0.427431
vt 0.999774 0.854183
vt 0.395803 0.920201
vt 0.395803 0.493450
vt 0.697562 0.493450
vt 0.697562 0.920201
vt 0.348668 0.000226
vt 0.000227 0.123419
vt 0.000226 0.492997
vt 0.348668 0.369804
vt 0.349121 0.123419
vt 0.697562 0.000226
vt 0.697562 0.369804
vt 0.349121 0.492997
vn -0.7071 -0.5000 -0.5000
vn -0.7071 0.5000 0.5000
vn 0.7071 0.5000 0.5000
vn 0.7071 -0.5000 -0.5000
vn 0.0000 0.7071 -0.7071
vn 0.0000 -0.7071 0.7071
usemtl StarGlass
s 1
f 17/43/13 18/44/13 19/45/13 20/46/13
f 20/47/14 19/48/14 21/49/14 22/50/14
f 22/51/15 21/52/15 23/53/15 24/54/15
f 24/55/16 23/56/16 18/57/16 17/58/16
f 20/59/17 22/60/17 24/61/17 17/62/17
f 21/63/18 19/64/18 18/65/18 23/66/18
